<?xml version="1.0" standalone="no"?>
<!DOCTYPE svg PUBLIC "-//W3C//DTD SVG 20010904//EN"
 "http://www.w3.org/TR/2001/REC-SVG-20010904/DTD/svg10.dtd">
<svg version="1.0" xmlns="http://www.w3.org/2000/svg"
 width="2000.000000pt" height="2000.000000pt" viewBox="0 0 2000.000000 2000.000000"
 preserveAspectRatio="xMidYMid meet">

<g transform="translate(0.000000,2000.000000) scale(0.100000,-0.100000)"
fill="#000000" stroke="none">
<path d="M8375 15970 c4 -6 -24 -11 -67 -12 -40 -1 -56 -3 -35 -5 20 -2 35 -9
32 -14 -4 -5 -11 -6 -17 -3 -7 5 -9 1 -5 -9 5 -12 -1 -19 -18 -23 -14 -3 -25
-10 -25 -16 0 -5 -4 -6 -10 -3 -5 3 -10 2 -10 -2 0 -5 -23 -16 -51 -26 -28
-10 -48 -22 -44 -25 4 -4 190 -10 413 -13 780 -13 1077 -38 1099 -95 9 -24
-16 -39 -131 -75 -100 -32 -102 -32 -196 -20 -52 7 -180 16 -285 21 -104 5
-227 12 -271 15 -47 4 -84 3 -88 -3 -6 -10 32 -19 214 -53 147 -27 211 -60
311 -160 84 -82 142 -185 179 -313 10 -36 35 -96 56 -133 55 -100 182 -338
223 -418 20 -39 51 -108 70 -155 37 -94 118 -283 161 -375 18 -38 34 -100 46
-170 9 -60 30 -168 46 -240 24 -110 31 -173 44 -415 9 -182 24 -343 39 -444
26 -169 32 -326 14 -373 -8 -22 -6 -45 12 -110 19 -73 20 -88 9 -127 -16 -59
-33 -72 -105 -85 -114 -20 -421 -50 -630 -61 -115 -6 -255 -15 -310 -20 -55
-5 -289 -11 -520 -15 -435 -5 -419 -4 -695 -56 -58 -11 -81 -9 -220 14 -85 15
-206 31 -269 37 -62 6 -186 24 -275 40 -298 55 -321 59 -376 65 -94 11 -173
35 -230 69 -85 52 -95 56 -191 81 -49 13 -100 30 -113 39 -32 21 -46 88 -46
224 0 151 -16 298 -49 464 -16 79 -37 200 -46 269 -8 69 -20 141 -25 160 -6
19 -10 46 -10 60 0 15 -8 33 -17 40 -15 12 -16 12 -9 -6 19 -47 19 -56 0 -49
-15 4 -16 4 -5 -4 8 -6 11 -17 8 -25 -3 -8 0 -20 6 -27 9 -10 9 -11 -2 -5 -11
6 -13 3 -9 -13 4 -12 0 -26 -8 -33 -15 -12 -16 -11 -17 43 -1 15 -5 24 -9 22
-4 -3 -8 5 -8 17 0 12 -3 20 -6 16 -3 -3 3 -86 15 -184 11 -98 25 -313 32
-478 9 -243 15 -311 30 -360 10 -33 27 -115 36 -183 l17 -123 -28 -107 c-16
-59 -47 -172 -69 -252 -36 -132 -40 -156 -41 -275 l-1 -130 37 -77 c28 -59 52
-92 103 -140 169 -158 175 -165 175 -205 0 -21 -11 -61 -24 -89 -26 -56 -71
-85 -155 -99 -56 -9 -105 -30 -158 -66 -23 -16 -45 -29 -50 -29 -15 1 -82 94
-89 122 -4 21 -10 27 -22 24 -10 -3 -47 -10 -85 -16 -80 -12 -102 -4 -123 45
-15 36 -43 49 -169 79 -33 7 -105 26 -160 42 -74 20 -124 27 -190 28 -84 0
-103 -4 -280 -61 -104 -34 -222 -71 -261 -82 -109 -32 -228 -131 -369 -309
-96 -122 -115 -153 -115 -190 0 -44 -34 -169 -65 -237 -34 -73 -40 -204 -12
-265 18 -42 19 -55 11 -185 -5 -77 -9 -196 -8 -265 0 -118 3 -137 53 -325 75
-287 153 -436 310 -594 76 -76 230 -183 283 -196 15 -4 30 -15 33 -26 9 -28
-5 -112 -23 -131 -12 -15 -15 -71 -18 -355 -2 -186 -9 -381 -14 -433 -6 -52
-11 -173 -10 -267 0 -148 -2 -173 -15 -173 -19 0 -20 -16 -1 -27 8 -5 18 -42
25 -96 13 -96 19 -117 32 -117 5 0 9 41 9 90 0 50 3 90 8 90 4 0 23 -5 42 -10
44 -13 353 -86 398 -94 18 -3 32 -1 32 4 0 6 -7 10 -15 10 -8 0 -15 5 -15 10
0 6 5 10 10 10 24 0 7 28 -22 37 -18 5 -32 15 -30 21 1 7 -7 99 -18 205 -18
182 -19 204 -5 397 8 113 15 256 15 318 0 102 2 113 17 110 11 -2 30 -31 49
-76 17 -40 41 -83 52 -95 12 -12 33 -60 47 -107 15 -46 40 -111 56 -144 16
-33 29 -68 29 -78 0 -11 13 -45 30 -76 16 -31 42 -82 56 -112 14 -30 35 -73
46 -95 35 -70 107 -218 135 -280 14 -33 32 -72 39 -87 12 -25 11 -28 -5 -28
-10 0 -38 13 -62 30 -24 16 -45 25 -47 20 -5 -14 -53 -12 -107 2 -33 9 -48 9
-56 1 -16 -16 8 -26 116 -52 50 -12 131 -33 180 -46 87 -24 240 -58 396 -89
41 -8 95 -22 120 -31 24 -8 72 -16 107 -18 71 -2 82 -11 82 -69 0 -20 11 -83
25 -140 14 -57 25 -113 25 -125 0 -13 4 -23 8 -23 4 0 4 33 0 73 -4 39 -10
116 -14 170 l-7 97 59 1 c63 0 56 9 -21 25 -36 8 -40 12 -47 49 -4 22 -7 78
-7 125 -1 47 -5 101 -11 119 -5 19 -8 37 -5 39 3 3 59 -1 125 -8 l120 -13 0
-82 c0 -110 31 -169 138 -270 72 -67 95 -75 202 -75 52 0 147 -9 210 -20 63
-11 178 -25 255 -30 140 -11 398 -33 572 -50 58 -5 106 -5 128 1 19 6 40 7 46
4 11 -7 5 164 -11 320 -5 44 -6 83 -4 87 3 5 21 8 40 8 47 0 40 24 -8 28 -40
3 -35 -12 -56 175 -6 49 -13 91 -16 94 -3 3 -12 0 -21 -7 -11 -9 -15 -32 -15
-81 l0 -69 -87 6 c-49 3 -121 10 -161 15 -92 11 -202 12 -202 1 0 -5 11 -14
25 -20 23 -11 25 -16 19 -49 -4 -21 -8 -40 -11 -42 -12 -14 -535 42 -584 63
l-36 15 -12 97 c-6 53 -17 215 -23 360 -9 210 -9 271 1 302 l13 38 291 1 292
2 38 -26 c28 -19 37 -33 37 -53 0 -16 7 -30 16 -34 9 -3 68 -7 132 -7 64 -1
148 -4 186 -8 67 -6 69 -7 72 -35 4 -39 12 -44 19 -10 3 16 10 36 15 46 5 9 6
29 2 45 -4 15 -6 40 -4 56 3 25 7 27 48 27 58 0 55 24 -3 28 l-40 3 -7 107
c-3 59 -11 217 -16 350 -10 251 -15 292 -32 292 -7 0 -8 -62 -3 -191 l7 -191
-44 7 c-23 4 -70 9 -103 11 -33 2 -132 8 -220 13 -88 6 -362 15 -610 22 -247
6 -452 13 -454 15 -3 2 -8 34 -13 71 -12 103 -28 103 -28 0 0 -71 -3 -87 -15
-87 -8 0 -15 -5 -15 -10 0 -6 7 -13 15 -16 12 -5 15 -33 15 -162 l0 -155 -107
7 c-60 4 -111 10 -116 15 -4 4 -6 64 -5 132 3 117 4 124 23 122 11 -2 27 2 35
7 13 9 13 11 0 20 -8 5 -25 10 -38 10 -33 0 -40 28 -48 183 -3 76 -9 135 -13
132 -3 -4 -8 -68 -11 -143 l-5 -137 -50 3 c-27 2 -63 7 -80 12 -16 4 -99 11
-183 14 -133 6 -153 4 -158 -9 -9 -22 -5 -24 57 -32 l54 -8 8 -115 c4 -63 6
-258 4 -432 -3 -281 -5 -319 -20 -336 -21 -23 -21 -36 -3 -51 20 -16 26 -59
13 -94 -7 -22 -7 -35 2 -48 6 -10 11 -27 11 -36 0 -38 -29 17 -110 207 -45
107 -99 233 -120 280 -47 107 -54 126 -84 225 -13 44 -38 116 -56 160 -18 44
-42 107 -55 140 -12 33 -28 73 -34 89 -10 24 -9 32 4 46 15 17 14 19 -17 25
-18 4 -73 21 -121 37 -84 29 -122 31 -84 4 9 -7 17 -15 17 -17 0 -10 -400 28
-435 41 -30 11 -84 -5 -103 -32 -23 -32 -32 -20 -32 42 0 70 -9 67 128 44 150
-26 375 -23 481 5 46 12 120 26 163 31 45 5 102 20 131 33 126 58 273 239 425
524 116 218 160 338 176 487 l11 101 85 43 c76 38 90 42 135 37 190 -20 186
-21 272 25 293 160 437 221 573 246 41 7 136 13 210 13 119 1 148 -3 250 -30
80 -21 154 -33 242 -39 70 -5 136 -13 147 -20 13 -6 27 -32 37 -67 15 -53 15
-65 -5 -228 -18 -142 -20 -183 -11 -239 13 -79 68 -298 104 -409 29 -91 110
-249 169 -327 63 -84 212 -225 306 -288 46 -31 96 -65 110 -75 14 -9 43 -22
64 -27 20 -6 56 -15 79 -21 23 -6 37 -14 31 -17 -6 -4 -92 -7 -189 -7 -151 0
-179 2 -181 15 -1 8 -5 36 -8 63 -9 71 -28 59 -23 -14 l4 -61 -68 4 -69 5 -49
-50 c-28 -28 -50 -55 -50 -59 0 -5 -8 -25 -17 -46 l-17 -37 -7 70 c-3 39 -7
109 -8 157 -1 107 -20 238 -33 238 -7 0 -8 -45 -3 -132 4 -73 6 -257 4 -408
-4 -429 -4 -576 0 -700 5 -112 4 -115 -18 -120 -29 -7 -32 -24 -3 -28 12 -2
27 -12 32 -23 6 -10 15 -88 20 -171 5 -84 16 -180 25 -213 16 -62 80 -164 123
-199 31 -25 15 -34 -47 -28 -31 3 -51 0 -56 -8 -14 -22 10 -29 100 -31 50 -1
95 -5 100 -9 19 -14 390 -33 550 -27 662 24 740 26 751 11 6 -8 21 -14 33 -14
16 0 21 6 21 25 0 23 3 25 49 25 27 0 62 5 77 10 43 17 15 33 -68 39 l-73 6
-3 44 c-2 24 2 57 9 73 10 26 9 32 -12 54 -16 17 -22 35 -21 57 1 19 -4 52
-12 74 -17 48 -14 53 28 53 17 0 38 5 46 10 46 29 -73 40 -225 19 -114 -15
-1000 -19 -1013 -4 -6 6 -13 49 -17 96 l-7 87 514 1 c509 1 664 6 689 22 29
17 -7 22 -168 20 l-168 -2 0 73 c0 40 -4 128 -9 194 l-9 122 139 4 c139 5 179
12 168 30 -5 7 -239 13 -344 8 -14 -1 -79 0 -145 2 -170 4 -294 4 -495 -2
l-175 -5 -7 80 c-3 44 -3 83 0 87 4 4 228 12 497 18 270 5 513 14 540 19 28 6
78 10 112 10 60 1 62 2 65 29 2 22 9 28 33 30 103 9 93 32 -14 32 l-78 0 -7
68 c-3 37 -10 103 -16 146 -5 44 -8 81 -7 82 1 1 47 4 103 8 l101 7 11 -73 c6
-40 14 -118 17 -173 3 -55 10 -165 15 -245 5 -80 11 -199 13 -266 l4 -121 -63
-13 c-96 -19 -79 -56 21 -48 37 3 39 1 46 -32 4 -19 9 -82 11 -140 l3 -104
-55 -11 c-41 -8 -56 -15 -58 -29 -4 -18 1 -18 61 -12 l65 6 7 -82 c4 -46 16
-126 27 -178 11 -52 22 -116 25 -143 3 -26 9 -50 14 -52 4 -3 83 -2 175 1 145
6 170 10 186 26 23 23 19 39 -13 55 -21 10 -27 24 -37 85 -17 97 -30 251 -42
488 -6 107 -15 219 -20 249 -15 83 -13 441 3 445 6 2 125 11 262 20 138 9 285
21 328 27 l78 10 43 -35 c54 -44 66 -86 66 -231 0 -117 -15 -170 -54 -186 -12
-4 -59 -13 -106 -19 -47 -5 -150 -19 -229 -30 -80 -11 -146 -19 -146 -17 -1 1
-6 30 -11 65 -5 35 -13 62 -19 60 -6 -2 -9 -93 -8 -253 1 -194 6 -272 20 -349
23 -125 43 -140 43 -32 0 41 3 77 8 80 9 5 282 32 429 41 116 8 105 17 118
-95 8 -74 15 -100 27 -100 6 0 8 41 7 103 -3 100 -2 102 20 105 13 2 47 18 76
35 101 60 185 212 185 334 l0 42 79 7 c84 7 108 15 97 33 -5 7 -38 8 -101 4
l-94 -6 -3 219 c-2 181 0 221 11 232 10 8 48 12 108 12 86 0 93 -1 93 -20 0
-11 5 -20 10 -20 6 0 10 9 10 19 0 24 4 25 165 47 76 10 137 23 147 31 9 8 31
13 50 11 l33 -3 6 -240 c8 -293 25 -632 38 -740 25 -203 33 -287 28 -306 -3
-12 0 -27 7 -35 7 -7 21 -66 31 -131 21 -149 38 -216 53 -221 13 -4 12 5 -15
216 -10 74 -13 126 -7 132 10 10 132 35 209 43 54 6 145 42 145 57 0 6 -6 10
-14 10 -27 0 -38 32 -47 137 -25 308 -39 522 -49 743 -6 135 -13 268 -16 296
-10 85 -5 90 84 98 42 3 133 9 202 11 69 3 153 10 187 15 34 6 86 7 116 4 l54
-6 6 -189 c4 -104 10 -275 14 -379 l6 -190 -24 0 c-13 0 -41 -5 -62 -11 -59
-16 -41 -34 34 -34 l64 0 6 -96 c7 -108 21 -143 83 -207 34 -35 38 -44 26 -52
-8 -5 -22 -10 -30 -10 -8 0 -40 -17 -70 -36 l-55 -36 62 6 c34 3 102 19 150
35 48 17 107 33 130 37 l42 6 7 -61 c9 -78 24 -69 24 15 0 35 2 64 5 64 3 0
47 9 98 19 50 11 164 31 252 45 88 14 189 30 225 36 71 12 268 70 343 101 26
11 100 33 164 49 63 15 120 34 127 40 11 13 -11 12 -108 -6 l-38 -7 17 32 c36
70 55 153 55 238 0 58 4 85 13 87 6 3 24 7 40 10 15 4 27 13 27 21 0 12 -8 14
-38 9 l-39 -6 -6 248 c-4 137 -7 309 -7 382 l0 132 25 0 c32 0 34 27 3 32 -22
3 -23 8 -30 143 -11 251 -29 339 -38 186 l-5 -95 -30 47 c-16 26 -46 59 -67
73 -42 29 -28 30 -213 -11 -38 -8 -144 -24 -235 -35 -271 -33 -306 -39 -391
-60 -45 -11 -107 -20 -138 -20 -31 0 -128 -7 -215 -15 -88 -8 -161 -13 -163
-11 -10 10 -23 123 -23 202 0 51 -4 96 -10 99 -12 7 -15 -29 -15 -190 l0 -120
-45 -6 c-147 -20 -160 -20 -160 1 0 29 -38 27 -42 -2 -3 -22 -9 -23 -213 -40
-115 -9 -214 -13 -218 -9 -10 10 -27 121 -27 179 0 23 -4 42 -10 42 -5 0 -11
-49 -12 -112 l-3 -113 -65 -12 c-92 -16 -512 -71 -588 -77 -54 -4 -65 -1 -75
15 -15 24 -27 24 -27 2 -1 -10 -9 -28 -19 -40 -18 -22 -26 -23 -170 -23 -97 0
-152 4 -157 11 -4 7 -20 8 -41 4 -19 -3 -40 -2 -46 3 -12 9 -351 -14 -532 -37
-49 -6 -130 -16 -180 -22 -49 -5 -104 -12 -121 -15 l-32 -4 -4 72 -4 73 52 65
c49 62 132 186 197 295 135 227 193 439 169 616 -25 175 -13 239 52 297 54 47
117 76 244 111 l113 31 103 -20 c99 -20 109 -20 193 -5 100 17 183 42 183 56
0 13 -50 36 -120 54 -74 19 -137 15 -253 -15 -123 -33 -157 -25 -157 36 0 57
90 148 205 207 65 34 334 129 505 178 220 63 191 62 342 12 97 -32 161 -47
238 -55 126 -13 129 -13 137 -35 7 -18 -60 -86 -130 -130 -51 -32 -219 -87
-331 -108 -49 -9 -102 -23 -117 -31 -38 -19 -81 -63 -76 -77 2 -7 28 -22 58
-34 65 -27 148 -30 210 -7 88 31 209 44 429 44 187 0 243 -4 415 -29 236 -35
428 -54 735 -76 321 -22 372 -34 401 -87 6 -12 20 -58 31 -102 31 -131 55
-202 82 -243 33 -51 225 -245 306 -311 133 -107 340 -179 485 -169 39 3 93 2
120 -1 49 -7 50 -8 53 -44 3 -41 4 -41 -95 -57 -35 -6 -90 -16 -124 -22 -45
-8 -64 -7 -75 2 -11 9 -18 8 -30 -2 -9 -8 -54 -23 -101 -34 -46 -11 -84 -24
-83 -30 0 -6 36 -9 89 -8 l88 2 6 -162 c5 -136 4 -164 -8 -173 -19 -14 -19
-24 0 -24 12 0 15 -17 16 -87 2 -153 17 -600 28 -808 10 -208 8 -225 -30 -225
-11 0 -19 -7 -19 -15 0 -10 10 -15 29 -15 25 0 30 -4 36 -37 11 -61 20 -62 25
-3 l5 54 130 43 c72 23 135 42 142 42 6 1 13 -11 15 -26 4 -38 22 -35 26 4 3
29 7 32 68 49 59 16 94 37 82 50 -3 3 -36 0 -72 -7 -37 -6 -68 -10 -70 -8 -1
2 -10 103 -19 224 -19 246 -24 770 -7 780 6 3 7 17 4 30 -6 26 -16 23 296 86
229 46 241 48 287 48 38 1 44 -2 59 -31 23 -45 15 -130 -16 -163 -27 -29 -37
-32 -264 -80 -93 -20 -173 -38 -178 -41 -4 -3 -10 2 -13 10 -3 9 -7 23 -10 32
-4 13 -8 14 -20 4 -13 -11 -14 -45 -9 -234 3 -121 7 -231 10 -243 5 -28 21
-30 29 -3 5 15 15 20 44 20 35 0 43 -6 86 -57 27 -32 55 -65 64 -73 46 -42
132 -153 124 -161 -5 -5 -26 -15 -48 -22 -38 -13 -48 -34 -15 -30 114 12 168
26 533 140 151 48 157 67 11 37 -29 -6 -34 -2 -79 63 -27 37 -79 99 -116 137
-66 67 -78 96 -38 96 45 0 184 134 248 239 l33 54 -1 218 c-1 120 -5 239 -11
265 -18 79 -55 138 -121 194 -67 55 -55 53 -164 34 -34 -6 -35 -6 -35 27 0 43
-10 79 -21 79 -4 0 -9 -26 -11 -57 l-3 -58 -140 -22 c-77 -12 -216 -33 -310
-48 -238 -38 -220 -39 -220 15 l0 45 65 6 c36 3 76 12 90 19 14 8 70 26 125
41 190 52 233 66 260 87 14 11 43 26 63 33 20 6 46 20 57 30 11 9 61 37 110
60 141 67 162 97 260 360 64 172 70 217 69 569 -1 488 -35 665 -188 983 -138
286 -247 379 -586 501 -52 19 -126 46 -165 61 -68 27 -73 27 -216 21 -121 -6
-159 -4 -220 11 -99 23 -280 23 -330 1 -61 -28 -137 -106 -216 -222 -42 -61
-89 -130 -105 -153 -15 -23 -40 -71 -53 -108 -54 -144 -78 -159 -119 -77 -87
172 -166 421 -166 524 0 29 9 77 20 106 29 76 27 194 -5 302 -14 46 -25 99
-25 118 0 19 -5 64 -12 101 -11 58 -24 84 -113 216 -57 85 -111 178 -124 214
-30 83 -47 110 -113 179 -30 31 -69 80 -88 107 -52 79 -77 101 -205 183 -66
42 -131 84 -145 94 -44 33 -181 172 -201 205 -11 17 -35 93 -55 169 -65 255
-94 355 -128 444 -47 120 -64 224 -71 435 -6 173 -22 308 -65 555 -11 63 -25
155 -31 204 -8 70 -23 117 -66 220 -30 72 -69 158 -86 190 -34 65 -94 149
-111 155 -6 2 -36 28 -67 58 -37 35 -78 62 -120 79 -35 14 -92 42 -126 60 -85
48 -173 81 -273 104 -134 30 -168 31 -260 14 -57 -11 -145 -17 -265 -18 l-180
-2 -115 -39 -115 -40 -360 0 -360 0 -91 33 c-124 44 -255 68 -469 87 -99 8
-243 22 -319 31 -160 17 -821 20 -811 4z m2445 -320 c67 -7 124 -7 191 1 71 8
153 8 305 0 115 -6 317 -13 449 -17 274 -7 313 -14 367 -72 20 -20 59 -62 87
-92 68 -72 117 -173 102 -208 -12 -26 -10 -30 35 -82 12 -14 27 -41 33 -60 21
-62 85 -489 101 -675 13 -148 19 -176 66 -296 27 -70 35 -110 43 -205 14 -174
37 -309 66 -394 60 -174 60 -180 5 -250 -42 -54 -108 -84 -162 -75 -73 11
-170 47 -228 83 -67 44 -137 66 -287 92 -177 31 -205 27 -305 -42 -47 -33 -70
-42 -145 -54 -48 -7 -160 -25 -248 -39 -88 -15 -212 -33 -275 -42 -114 -16
-115 -16 -183 8 -61 20 -73 21 -100 10 -59 -24 -81 -24 -103 1 -19 21 -22 43
-33 223 -15 265 -14 429 4 545 19 123 19 393 0 540 -8 63 -24 194 -35 290 -41
364 -48 393 -150 594 -73 145 -79 161 -67 180 27 40 55 46 217 46 85 0 198 -5
250 -10z m-753 -77 c63 -29 88 -64 205 -293 135 -263 135 -263 148 -780 6
-234 16 -440 26 -525 37 -317 -12 -622 -116 -727 -21 -21 -42 -38 -48 -38 -16
0 -47 48 -67 105 -10 28 -29 62 -41 77 -27 33 -26 30 -59 193 -15 72 -35 171
-45 220 -11 50 -24 133 -30 185 -18 156 -26 182 -106 347 -59 120 -88 168
-125 205 -33 33 -63 79 -94 145 -26 54 -66 130 -89 168 -33 53 -45 84 -49 126
-3 30 -17 80 -31 109 -42 87 -147 257 -198 321 -58 72 -67 100 -40 127 31 31
85 42 217 43 66 0 188 6 270 13 173 14 201 12 272 -21z m2133 -2378 c189 -50
259 -64 374 -75 71 -6 145 -18 163 -25 19 -8 76 -58 126 -111 66 -69 124 -117
202 -169 61 -40 144 -101 185 -136 42 -35 99 -81 127 -102 29 -21 81 -75 117
-120 36 -45 91 -109 122 -142 101 -105 204 -287 204 -358 0 -38 -36 -82 -80
-99 -66 -26 -373 -75 -555 -88 -77 -6 -196 -15 -265 -20 -69 -5 -156 -16 -195
-25 -117 -27 -182 -36 -275 -38 -87 -2 -90 -1 -119 28 -16 17 -66 104 -111
195 -45 91 -92 185 -105 210 -18 35 -55 71 -166 158 -190 149 -250 190 -334
227 -136 60 -211 104 -275 160 -92 81 -119 92 -178 76 -26 -7 -51 -16 -56 -21
-13 -13 26 -53 99 -103 33 -22 103 -81 155 -132 84 -82 108 -98 205 -145 322
-152 358 -172 425 -240 76 -75 128 -172 156 -288 26 -111 15 -370 -19 -473
-76 -224 -106 -285 -177 -363 -37 -42 -84 -101 -105 -131 -20 -31 -60 -84 -89
-118 -29 -34 -58 -71 -64 -83 -6 -12 -10 -62 -9 -115 1 -76 -3 -103 -19 -139
-34 -73 -45 -78 -109 -45 -45 23 -63 26 -97 21 -65 -11 -116 -38 -205 -110
-118 -96 -234 -166 -430 -262 -172 -84 -208 -95 -231 -72 -18 18 -14 73 6 91
10 9 67 40 128 68 224 106 712 408 799 495 60 60 39 114 -45 114 -36 0 -73
-13 -179 -65 -73 -36 -160 -84 -193 -106 -101 -69 -212 -115 -336 -140 -87
-17 -126 -30 -170 -57 -82 -50 -131 -74 -142 -67 -21 13 8 39 91 80 49 25 119
65 156 90 83 56 245 135 350 171 97 33 108 39 161 81 48 39 72 79 72 120 0 58
-46 81 -114 58 -54 -18 -218 -96 -341 -162 -50 -26 -119 -61 -155 -78 -36 -16
-132 -67 -215 -113 -127 -70 -156 -82 -190 -80 -38 3 -40 5 -40 34 0 25 9 38
45 66 33 25 52 50 70 94 14 33 40 81 58 107 52 74 80 144 95 242 15 94 21 113
106 339 29 76 51 151 49 165 -5 47 -39 38 -114 -29 -37 -33 -72 -59 -77 -57
-21 7 -28 68 -18 137 6 38 8 77 4 87 -11 31 -35 53 -59 53 -45 0 -72 -39 -114
-167 -22 -67 -54 -142 -71 -167 -16 -25 -69 -79 -117 -119 -112 -95 -176 -165
-198 -213 -10 -22 -33 -86 -53 -144 -42 -123 -43 -124 -153 -86 -40 13 -143
42 -228 63 -134 33 -170 38 -270 38 l-115 0 -135 -63 c-74 -35 -180 -77 -235
-93 -54 -16 -121 -42 -147 -57 -26 -15 -104 -83 -174 -150 -184 -179 -182
-177 -273 -176 -146 2 -387 23 -501 44 -84 16 -136 20 -195 16 -221 -16 -300
-18 -334 -7 -21 6 -64 37 -102 73 -105 99 -176 158 -190 158 -17 0 -96 -46
-144 -85 -22 -18 -71 -50 -110 -72 -38 -22 -119 -70 -180 -107 -60 -36 -114
-65 -120 -63 -5 2 -14 19 -19 39 -10 39 -8 42 149 254 33 45 89 120 123 168
35 47 70 86 77 86 7 0 28 26 46 58 129 229 145 279 114 346 -32 67 -136 122
-187 99 -12 -5 -46 -47 -77 -92 -31 -46 -68 -91 -83 -100 -27 -15 -31 -14
-110 26 -46 22 -97 46 -115 53 -41 15 -60 45 -89 138 -32 101 -30 150 12 283
29 92 43 121 72 149 19 19 43 53 53 75 10 22 29 51 43 64 24 23 30 23 123 18
54 -4 139 -13 188 -21 50 -9 137 -15 195 -16 77 0 133 -7 210 -26 258 -62 498
-103 696 -119 434 -33 429 -33 521 -70 127 -53 163 -54 408 -6 116 23 242 48
280 56 149 32 771 115 1075 145 64 6 201 10 305 8 184 -3 191 -2 222 20 18 12
45 50 62 84 26 52 31 72 31 137 0 42 8 129 17 194 l17 119 -23 61 c-35 94 -36
100 -5 148 35 53 64 116 64 136 0 18 29 76 43 85 13 8 48 -10 140 -68 77 -50
179 -88 213 -80 21 6 22 9 12 34 -19 44 -63 103 -123 166 -43 45 -55 64 -53
85 3 26 5 26 128 42 69 9 186 28 260 42 74 14 184 31 243 37 143 15 424 57
462 70 38 12 173 4 245 -15z m-1886 -117 c34 -59 53 -134 67 -265 9 -86 9
-123 0 -159 -12 -45 -47 -104 -63 -104 -18 0 -29 58 -43 223 -8 95 -18 200
-21 235 -7 61 6 112 27 112 5 0 19 -19 33 -42z m3494 -1529 c40 -43 35 -144
-12 -218 -13 -20 -49 -85 -81 -146 -67 -126 -83 -151 -145 -220 -25 -27 -92
-112 -149 -188 -127 -169 -205 -251 -376 -393 -28 -23 -70 -58 -94 -79 -25
-20 -61 -45 -80 -54 -84 -42 -241 -61 -506 -61 -160 0 -220 -4 -291 -19 -98
-21 -134 -19 -178 12 -25 18 -28 25 -24 62 3 23 21 73 40 111 19 38 55 110 81
159 81 159 184 388 215 475 16 47 37 130 47 185 21 125 52 186 116 228 14 10
73 23 139 32 63 8 144 24 180 35 58 18 148 35 375 71 120 19 251 26 492 28
222 1 233 0 251 -20z m1318 -308 c38 -10 94 -28 125 -40 31 -11 86 -23 124
-27 90 -9 163 -57 221 -146 91 -137 135 -209 180 -291 58 -106 83 -133 137
-148 23 -7 48 -17 55 -24 6 -6 24 -56 37 -110 32 -123 35 -244 11 -328 -23
-75 -16 -126 35 -280 52 -155 58 -220 30 -315 -34 -111 -52 -149 -131 -262
-120 -172 -135 -184 -284 -219 -126 -30 -142 -29 -186 19 -66 72 -67 79 -31
166 19 45 36 109 43 158 9 73 23 121 63 226 19 47 19 266 1 345 -8 33 -24 93
-36 134 -11 41 -30 135 -41 210 -34 233 -117 455 -241 646 -68 106 -102 140
-191 193 -67 41 -101 76 -94 96 9 22 86 21 173 -3z m-4936 -19 c0 -28 57 -98
94 -116 39 -18 147 -22 177 -6 24 14 25 -1 2 -41 -13 -22 -27 -30 -61 -35
-142 -21 -253 59 -236 171 6 44 24 63 24 27z m-3580 -113 c0 -28 -38 -89 -55
-89 -17 0 -27 28 -19 54 16 51 74 79 74 35z m3584 -97 c34 -26 124 -46 157
-34 13 5 37 12 52 16 l29 7 -19 -31 c-26 -46 -46 -52 -137 -48 -92 3 -121 18
-155 79 -24 41 -26 65 -10 106 l11 28 23 -51 c12 -28 34 -60 49 -72z m4569 58
c73 -16 148 -35 165 -41 41 -14 80 -70 130 -185 21 -49 59 -120 84 -159 99
-155 115 -193 121 -284 5 -77 10 -94 58 -190 62 -124 66 -162 30 -327 -18 -86
-21 -129 -19 -285 2 -171 0 -188 -21 -242 -29 -75 -114 -167 -179 -195 -61
-26 -172 -46 -227 -40 -23 3 -73 19 -111 36 -55 25 -86 32 -154 35 -74 3 -94
8 -160 42 -106 53 -144 86 -170 146 -29 70 -20 108 33 128 40 15 82 8 207 -37
56 -19 196 -36 306 -36 47 0 70 6 105 26 63 37 136 113 166 172 24 45 27 62
26 151 -1 180 -42 358 -114 495 -45 85 -63 109 -100 134 -26 17 -27 17 -47
-19 -16 -26 -28 -35 -47 -35 -38 0 -101 36 -174 97 -57 49 -68 54 -98 50 -19
-3 -56 -20 -84 -36 -27 -17 -58 -31 -69 -31 -44 0 -149 143 -157 214 -9 73 79
237 186 350 44 47 128 96 163 96 10 0 77 -13 151 -30z m-4668 -89 c6 -28 37
-63 85 -94 28 -19 139 -23 171 -7 28 15 25 -12 -5 -47 -23 -26 -29 -28 -98
-28 -109 1 -171 44 -184 127 -12 71 16 116 31 49z m0 -180 c40 -34 108 -47
175 -32 24 5 46 8 48 6 3 -2 -6 -20 -18 -39 l-22 -36 -82 0 c-97 0 -136 19
-173 85 -25 45 -28 62 -13 101 l11 27 20 -41 c12 -23 36 -55 54 -71z m-102
-30 c29 -83 116 -124 218 -102 28 6 54 10 56 8 2 -2 -7 -19 -20 -38 l-23 -34
-85 0 c-78 0 -89 2 -122 28 -21 16 -46 46 -57 67 -18 35 -19 44 -8 80 7 22 15
40 18 40 3 0 13 -22 23 -49z m-4905 5 c59 -19 136 -40 171 -46 165 -29 365
-130 414 -207 29 -46 51 -109 43 -122 -6 -9 60 -367 104 -561 10 -47 30 -148
44 -225 15 -77 34 -169 43 -205 30 -115 19 -223 -54 -509 -18 -73 -80 -158
-216 -295 -99 -100 -171 -139 -301 -161 -114 -19 -170 -19 -190 1 -26 25 -19
84 18 160 50 101 56 132 44 215 -13 86 -1 138 68 291 25 56 49 125 54 152 5
28 23 123 41 211 39 194 41 273 10 375 -25 83 -122 296 -175 384 -19 31 -48
92 -66 136 -34 84 -52 104 -134 152 -44 26 -46 30 -46 72 0 54 -27 89 -106
142 -30 20 -54 40 -54 45 0 17 43 28 113 28 51 1 94 -8 175 -33z m1226 -12
c33 -13 19 -63 -31 -114 -89 -91 -143 -68 -89 38 36 70 73 94 120 76z m2981
-99 c76 -22 191 -46 281 -60 68 -10 254 -82 338 -131 102 -59 136 -91 207
-194 32 -47 86 -112 120 -145 34 -33 77 -87 96 -120 21 -36 58 -78 91 -105 41
-34 63 -61 85 -109 32 -68 36 -106 22 -226 -5 -52 -3 -91 9 -149 28 -137 18
-308 -35 -581 -24 -122 -77 -284 -117 -358 -14 -27 -77 -97 -146 -165 -94 -91
-137 -125 -191 -151 -38 -19 -77 -34 -85 -34 -8 0 -22 -6 -31 -13 -20 -18
-221 -38 -302 -31 -119 11 -126 59 -27 192 60 81 71 109 79 219 5 57 14 114
21 127 7 13 43 78 80 144 75 131 87 170 139 435 35 178 37 220 15 298 -22 78
-105 248 -144 297 -18 22 -53 70 -77 107 -24 37 -67 94 -95 125 -28 32 -73 92
-100 133 -81 123 -110 152 -192 195 -71 36 -78 43 -102 95 -35 74 -76 115
-157 156 -37 19 -65 39 -62 44 3 5 27 16 53 24 56 18 114 13 227 -19z m-4527
-64 c74 -38 113 -88 151 -190 19 -51 49 -116 67 -144 21 -34 34 -71 38 -107
10 -93 55 -282 84 -350 l27 -65 0 -295 c-1 -361 -9 -419 -66 -484 -51 -57 -94
-153 -124 -274 -19 -77 -33 -110 -77 -174 -35 -51 -62 -81 -78 -85 -13 -3 -70
-2 -126 3 -66 7 -125 7 -173 0 -68 -9 -76 -8 -119 14 -100 53 -182 164 -238
325 -24 68 -61 137 -85 155 -25 19 -57 107 -64 173 -6 70 -4 80 24 145 28 64
31 80 31 174 0 57 -5 158 -11 225 -14 139 -7 200 41 375 31 112 65 188 154
348 66 118 114 174 175 205 111 56 286 69 369 26z m4247 -145 c78 -35 139 -87
171 -144 54 -95 89 -148 136 -209 33 -42 60 -92 83 -155 72 -198 107 -283 155
-376 38 -72 53 -115 60 -167 15 -108 12 -406 -5 -520 -22 -146 -36 -177 -106
-231 -33 -25 -66 -60 -75 -77 -9 -18 -29 -50 -45 -73 -15 -22 -35 -65 -44 -95
-30 -98 -37 -109 -99 -163 -115 -99 -130 -103 -281 -61 -69 19 -114 25 -194
25 l-105 0 -63 41 c-123 80 -166 140 -283 391 -12 26 -43 77 -70 113 -60 81
-74 121 -73 206 0 51 6 77 28 120 23 45 28 70 32 154 3 55 0 134 -7 175 -27
173 -25 223 15 380 48 192 46 186 223 478 83 137 101 151 257 194 127 34 206
33 290 -6z m4619 -123 c45 -23 56 -24 135 -18 78 5 90 4 131 -17 26 -13 57
-41 75 -66 26 -37 30 -53 30 -107 0 -72 -16 -97 -72 -116 -46 -15 -77 -5 -126
41 -52 48 -87 61 -257 100 -202 47 -210 49 -210 66 0 22 115 146 147 160 29
12 50 6 147 -43z m-5748 -63 c39 -16 92 -34 119 -40 78 -17 113 -38 120 -70 8
-37 -17 -137 -54 -217 -40 -85 -67 -99 -186 -93 -111 5 -219 5 -350 -1 -95 -4
-102 -3 -147 24 -67 39 -74 57 -52 130 16 53 16 62 3 85 -21 37 -211 132 -264
132 -51 0 -117 -30 -175 -79 -58 -49 -82 -61 -119 -61 -53 0 -85 52 -65 104 8
22 108 80 173 101 47 15 79 17 280 10 307 -10 348 -9 481 2 134 12 143 11 236
-27z m-1546 -35 c-15 -18 -83 -55 -101 -55 -21 0 12 30 60 55 50 25 62 25 41
0z m238 -151 c28 -20 29 -63 1 -98 -25 -32 -62 -52 -211 -112 -62 -25 -149
-61 -194 -80 -45 -19 -86 -34 -92 -34 -11 0 -32 52 -32 80 0 22 133 103 319
194 139 69 172 77 209 50z m6608 -26 c114 -73 243 -124 564 -223 140 -43 183
-67 178 -98 -5 -39 -63 -50 -226 -43 -144 6 -172 11 -542 94 -96 22 -221 47
-278 55 -57 9 -108 19 -113 22 -32 21 22 85 126 151 131 83 210 94 291 42z
m1549 -83 c44 -19 111 -39 149 -44 38 -6 75 -16 83 -23 7 -8 19 -40 25 -71 11
-51 10 -64 -7 -114 -17 -49 -26 -60 -65 -81 -63 -33 -167 -29 -223 10 -42 28
-91 96 -122 168 -25 56 -28 175 -5 191 22 14 74 2 165 -36z m809 -1429 c-21
-17 -83 -76 -136 -130 -54 -55 -100 -97 -103 -94 -3 3 53 65 124 138 86 88
133 130 142 125 9 -6 1 -17 -27 -39z m534 32 c15 -15 16 -48 1 -48 -7 0 -17 8
-24 17 -12 16 -16 15 -55 -12 -22 -16 -46 -37 -51 -47 -5 -10 -17 -18 -26 -18
-20 0 45 72 92 101 35 22 47 23 63 7z m-618 -16 c0 -5 -14 -19 -32 -32 l-32
-23 23 31 c21 30 41 42 41 24z m375 -92 c-10 -11 -23 -20 -29 -20 -6 0 0 9 14
20 32 25 38 25 15 0z m-711 -58 c-126 -110 -139 -107 -30 6 47 49 62 59 65 45
2 -11 -11 -30 -35 -51z m1036 33 c0 -8 -7 -15 -15 -15 -8 0 -19 -9 -25 -20 -6
-11 -18 -20 -27 -20 -12 0 -8 9 17 35 37 38 50 43 50 20z m-459 -25 c-30 -26
-49 -26 -26 0 10 11 25 20 34 20 12 -1 10 -5 -8 -20z m159 -10 c-13 -25 -51
-51 -62 -43 -6 3 5 20 23 39 33 34 57 37 39 4z m-365 -44 c-35 -43 -55 -57
-55 -38 0 11 82 93 88 88 2 -3 -13 -25 -33 -50z m654 3 c-20 -12 -22 -4 -8 23
12 21 13 21 17 4 2 -10 -2 -22 -9 -27z m-1908 6 c0 -13 -41 -19 -41 -7 0 11
20 22 33 18 5 -1 8 -6 8 -11z m119 7 c0 -13 -12 -22 -22 -16 -10 6 -1 24 13
24 5 0 9 -4 9 -8z m62 -44 c-28 -28 -38 -18 -11 11 12 12 24 20 27 16 3 -3 -4
-15 -16 -27z m1766 -10 c-2 -6 -15 -15 -28 -20 -23 -9 -23 -8 -5 12 20 22 39
27 33 8z m-1660 -19 c3 -14 -100 -99 -120 -99 -5 0 14 27 43 60 51 59 71 69
77 39z m1202 -9 c0 -5 -7 -10 -15 -10 -8 0 -15 5 -15 10 0 6 7 10 15 10 8 0
15 -4 15 -10z m-110 -20 c0 -5 -4 -10 -10 -10 -5 0 -10 5 -10 10 0 6 5 10 10
10 6 0 10 -4 10 -10z m570 -15 c0 -14 -78 -71 -86 -62 -5 4 72 77 81 77 3 0 5
-7 5 -15z m-2299 -12 c-19 -35 -40 -58 -46 -51 -4 3 3 20 16 37 24 33 46 43
30 14z m1554 -3 c-3 -5 -13 -10 -21 -10 -8 0 -14 5 -14 10 0 6 9 10 21 10 11
0 17 -4 14 -10z m-95 -15 c0 -8 -7 -15 -15 -15 -16 0 -20 12 -8 23 11 12 23 8
23 -8z m-2196 -24 c-20 -34 -34 -32 -34 5 0 19 5 24 26 24 l25 0 -17 -29z
m-69 -12 c4 -17 4 -52 -1 -77 -4 -26 -8 -105 -8 -177 l-1 -130 -92 -1 -93 -1
0 197 0 198 68 9 c116 17 120 17 127 -18z m2075 11 c0 -12 -40 -33 -48 -25 -4
4 2 13 12 21 23 16 36 18 36 4z m-2385 -55 c-38 -31 -49 -21 -11 11 15 14 31
22 35 19 3 -4 -7 -17 -24 -30z m464 6 c-9 -27 -49 -73 -49 -57 0 4 9 25 20 46
24 47 44 54 29 11z m81 -21 c-6 -12 -14 -19 -17 -17 -2 3 1 15 7 27 6 12 14
19 17 17 2 -3 -1 -15 -7 -27z m2880 26 c0 -2 -9 -6 -20 -9 -11 -3 -20 -1 -20
4 0 5 9 9 20 9 11 0 20 -2 20 -4z m-3590 -41 c-13 -14 -26 -23 -28 -20 -3 3 5
16 18 30 13 14 26 23 28 20 3 -3 -5 -16 -18 -30z m866 7 c-17 -34 -54 -68 -63
-58 -6 5 64 86 74 86 2 0 -3 -12 -11 -28z m-3221 -44 c-4 -29 -11 -57 -16 -62
-5 -5 -37 -11 -71 -14 l-63 -3 66 65 c37 36 72 66 79 66 9 0 10 -14 5 -52z
m2225 27 c-7 -9 -15 -13 -18 -10 -3 2 1 11 8 20 7 9 15 13 18 10 3 -2 -1 -11
-8 -20z m1770 1 c0 -3 -4 -8 -10 -11 -5 -3 -10 -1 -10 4 0 6 5 11 10 11 6 0
10 -2 10 -4z m-9370 -14 c0 -4 -19 -19 -42 -34 -24 -15 -55 -37 -70 -50 -45
-36 -41 -15 8 40 36 40 53 52 75 52 16 0 29 -3 29 -8z m223 -9 c4 -2 -20 -23
-53 -45 -63 -43 -83 -45 -56 -6 18 26 21 48 6 48 -6 0 -35 -18 -65 -40 -63
-47 -79 -51 -43 -12 14 15 31 37 37 50 12 22 16 23 89 16 42 -3 81 -8 85 -11z
m7247 7 c0 -5 -12 -17 -26 -27 -15 -10 -51 -40 -80 -67 -30 -27 -57 -46 -61
-42 -4 3 0 12 8 20 127 118 159 141 159 116z m-130 -8 c0 -17 -88 -103 -95
-92 -4 6 13 30 37 54 43 43 58 53 58 38z m-7010 -9 c0 -5 -14 -16 -30 -25 -30
-17 -30 -17 -30 7 0 21 5 25 30 25 17 0 30 -3 30 -7z m7223 -15 c-13 -12 -26
-19 -29 -15 -4 4 1 14 12 22 29 22 41 18 17 -7z m1587 18 c0 -3 -4 -8 -10 -11
-5 -3 -10 -1 -10 4 0 6 5 11 10 11 6 0 10 -2 10 -4z m-1940 -46 c-21 -29 -40
-39 -40 -21 0 9 47 51 57 51 2 0 -5 -13 -17 -30z m400 -31 c-30 -27 -62 -49
-70 -49 -10 1 -7 7 10 21 14 12 43 36 64 55 21 19 42 32 45 28 3 -3 -19 -28
-49 -55z m-7750 42 c0 -9 -93 -91 -104 -91 -3 0 -6 10 -6 23 0 16 13 29 48 48
53 30 62 33 62 20z m497 -67 c-45 -41 -67 -53 -67 -37 0 4 21 29 47 55 33 34
50 45 58 37 7 -7 -5 -24 -38 -55z m6333 -81 c0 -76 5 -145 10 -153 7 -11 10
-6 10 22 0 20 4 39 9 42 9 6 21 -130 13 -146 -2 -5 -41 -8 -86 -8 l-83 0 -7
38 c-3 20 -6 78 -6 128 0 71 -4 94 -16 105 -17 14 -54 82 -54 99 0 6 39 10
105 10 l105 0 0 -137z m4630 128 c0 -5 -21 -30 -47 -55 -115 -108 -148 -117
-43 -11 72 72 90 86 90 66z m-9576 -10 c3 -5 -16 -25 -44 -45 -27 -20 -50 -40
-50 -46 0 -5 -4 -10 -10 -10 -5 0 -10 25 -10 55 l0 55 54 0 c30 0 57 -4 60 -9z
m4340 -11 c-5 -5 -25 -12 -44 -16 -33 -5 -34 -5 -16 10 22 17 77 23 60 6z
m1315 -85 c-76 -77 -109 -100 -109 -76 0 17 180 175 189 165 2 -2 -34 -42 -80
-89z m2636 85 c-3 -5 -11 -10 -16 -10 -6 0 -7 5 -4 10 3 6 11 10 16 10 6 0 7
-4 4 -10z m1025 0 c0 -5 -5 -10 -11 -10 -5 0 -7 5 -4 10 3 6 8 10 11 10 2 0 4
-4 4 -10z m-9900 -9 c0 -8 -43 -41 -55 -41 -3 0 2 11 11 25 16 24 44 34 44 16z
m784 -10 c3 -5 -5 -16 -19 -25 -28 -18 -34 -6 -9 18 18 18 21 19 28 7z m3886
1 c0 -13 -12 -22 -22 -16 -10 6 -1 24 13 24 5 0 9 -4 9 -8z m3800 -7 c0 -8 -7
-15 -16 -15 -14 0 -14 3 -4 15 7 8 14 15 16 15 2 0 4 -7 4 -15z m-8570 -4 c0
-5 -13 -19 -30 -31 -24 -17 -30 -18 -30 -6 0 8 12 22 28 30 33 18 32 18 32 7z
m1030 1 c0 -11 -22 -32 -32 -32 -5 0 -4 9 2 20 11 20 30 28 30 12z m3475 -1
c5 -9 -31 -41 -47 -41 -4 0 -2 11 4 25 11 25 32 33 43 16z m95 -1 c0 -5 -2
-10 -4 -10 -3 0 -8 5 -11 10 -3 6 -1 10 4 10 6 0 11 -4 11 -10z m5220 6 c0 -5
-75 -56 -84 -56 -10 0 4 43 18 52 11 8 66 11 66 4z m-10416 -45 c18 -30 18
-33 1 -51 -27 -29 -34 -24 -28 16 6 36 5 37 -20 30 -31 -7 -34 0 -10 26 21 24
33 19 57 -21z m1952 15 c-10 -6 -40 -28 -67 -48 -27 -21 -54 -38 -61 -38 -16
0 79 88 107 99 27 11 44 0 21 -13z m5865 -3 c-12 -20 -14 -14 -5 12 4 9 9 14
11 11 3 -2 0 -13 -6 -23z m1084 8 c3 -10 10 -120 15 -243 6 -122 13 -270 16
-328 6 -87 4 -112 -9 -137 -20 -38 8 -31 -546 -133 -62 -12 -131 -28 -152 -37
-36 -14 -41 -14 -71 4 l-33 19 -7 125 c-13 226 -26 584 -21 591 2 4 36 17 76
29 40 12 81 27 92 33 59 31 111 41 380 67 66 6 145 15 175 19 30 4 60 8 67 9
6 0 14 -8 18 -18z m-7121 -17 c-21 -14 -56 -42 -78 -62 -45 -43 -44 -37 4 35
32 48 38 53 74 53 l39 0 -39 -26z m366 19 c-1 -11 -140 -94 -140 -84 0 18 93
91 116 91 13 0 24 -3 24 -7z m453 -25 c7 -49 -4 -51 -41 -7 l-33 39 34 0 c31
0 35 -3 40 -32z m2317 13 c0 -11 -4 -23 -10 -26 -5 -3 -10 -2 -10 4 0 5 -3 16
-6 25 -4 11 -1 16 10 16 9 0 16 -8 16 -19z m5380 9 c0 -5 -9 -14 -19 -20 -25
-13 -38 5 -14 19 23 13 33 14 33 1z m-7990 -4 c0 -5 -238 -166 -245 -166 -23
0 12 32 108 95 99 65 137 85 137 71z m-1470 -61 c0 -30 -3 -55 -7 -55 -5 1
-16 17 -25 37 -16 34 -16 38 -1 55 26 29 33 21 33 -37z m5791 23 c-12 -31 -37
-52 -52 -43 -8 5 0 18 22 40 19 18 35 32 37 30 1 -1 -2 -13 -7 -27z m84 -18
c-26 -37 -45 -51 -45 -32 0 12 62 84 68 78 3 -3 -8 -24 -23 -46z m-7364 -11
c-46 -42 -61 -47 -61 -25 0 16 90 79 99 70 3 -3 -14 -24 -38 -45z m269 41 c0
-5 -5 -10 -11 -10 -5 0 -7 5 -4 10 3 6 8 10 11 10 2 0 4 -4 4 -10z m2860 -4
c0 -14 -59 -50 -228 -143 -78 -43 -103 -38 -36 7 27 18 57 40 68 49 25 22 168
100 184 101 6 0 12 -6 12 -14z m5040 -22 c0 -27 -15 -32 -24 -9 -7 19 3 47 15
39 5 -3 9 -16 9 -30z m-3960 12 c0 -7 -7 -19 -15 -26 -12 -10 -15 -9 -15 7 0
11 3 23 7 26 11 12 23 8 23 -7z m3710 -6 c-13 -24 -47 -43 -54 -31 -6 10 39
51 56 51 5 0 4 -9 -2 -20z m2855 10 c-3 -5 -11 -10 -16 -10 -6 0 -7 5 -4 10 3
6 11 10 16 10 6 0 7 -4 4 -10z m690 -20 c-10 -11 -20 -18 -23 -15 -3 3 3 14
13 25 10 11 20 18 23 15 3 -3 -3 -14 -13 -25z m-7325 9 c0 -6 -20 -33 -45 -61
-24 -27 -65 -81 -91 -119 -25 -38 -52 -69 -59 -69 -19 0 15 66 88 173 47 67
66 87 84 87 13 0 23 -5 23 -11z m171 -7 c-13 -24 -40 -46 -47 -39 -9 8 29 56
44 57 9 0 10 -5 3 -18z m-311 1 c-1 -11 -26 -43 -34 -43 -10 0 -7 25 6 38 13
13 28 16 28 5z m7200 -7 c0 -14 -97 -92 -127 -102 -10 -4 10 21 44 55 61 61
83 73 83 47z m-7380 -5 c0 -13 -40 -61 -51 -61 -5 0 1 16 13 35 22 33 38 45
38 26z m2835 -1 c3 -5 1 -10 -4 -10 -6 0 -11 5 -11 10 0 6 2 10 4 10 3 0 8 -4
11 -10z m987 -12 c-6 -6 -15 -8 -19 -4 -4 4 -1 11 7 16 19 12 27 3 12 -12z
m3673 -28 c-10 -11 -23 -20 -28 -20 -6 0 0 11 13 25 27 29 42 25 15 -5z
m-1495 8 c-1 -15 -70 -62 -78 -53 -6 6 57 64 71 65 4 0 7 -6 7 -12z m605 -37
c-28 -27 -52 -47 -54 -45 -7 6 81 94 94 94 5 0 -13 -22 -40 -49z m-6490 0 c-8
-17 -18 -31 -21 -31 -7 0 6 42 19 58 17 22 19 5 2 -27z m6924 -38 c-35 -43
-64 -80 -66 -82 -8 -11 -14 9 -6 22 10 18 123 137 130 137 2 0 -24 -35 -58
-77z m-3564 57 c3 -5 1 -10 -4 -10 -6 0 -11 5 -11 10 0 6 2 10 4 10 3 0 8 -4
11 -10z m-4115 -9 c0 -12 -20 -25 -27 -18 -7 7 6 27 18 27 5 0 9 -4 9 -9z
m2840 5 c0 -2 -8 -10 -17 -17 -16 -13 -17 -12 -4 4 13 16 21 21 21 13z m3694
-10 c-8 -20 -34 -29 -34 -12 0 13 13 23 32 25 4 1 5 -5 2 -13z m-9674 0 c0 -2
-25 -22 -54 -45 -51 -38 -73 -41 -61 -9 8 20 115 71 115 54z m5300 -42 c-18
-21 -24 -10 -9 18 8 14 14 18 17 10 2 -7 -2 -19 -8 -28z m3169 -23 c-30 -63
-49 -84 -49 -54 0 15 64 113 74 113 1 0 -10 -27 -25 -59z m-6117 27 c-7 -7
-12 -8 -12 -2 0 14 12 26 19 19 2 -3 -1 -11 -7 -17z m8788 12 c0 -5 -4 -10
-10 -10 -5 0 -10 5 -10 10 0 6 5 10 10 10 6 0 10 -4 10 -10z m-8080 -14 c-8
-8 -26 -17 -40 -20 l-25 -7 24 20 c27 25 66 31 41 7z m3567 -18 c-3 -7 -5 -2
-5 12 0 14 2 19 5 13 2 -7 2 -19 0 -25z m3790 -20 c-42 -34 -46 -28 -11 17 20
27 29 33 35 23 6 -9 -2 -22 -24 -40z m-9857 36 c0 -3 -25 -33 -55 -67 -30 -33
-55 -64 -55 -69 0 -18 -29 -7 -36 14 -5 16 -2 25 11 33 10 5 40 29 68 53 48
39 67 50 67 36z m3602 -16 c-7 -7 -12 -8 -12 -2 0 14 12 26 19 19 2 -3 -1 -11
-7 -17z m498 -6 c0 -20 -95 -90 -107 -79 -10 10 31 59 61 72 37 16 46 18 46 7z
m5130 -7 c0 -15 -58 -51 -67 -41 -8 8 39 56 55 56 6 0 12 -7 12 -15z m-3905
-5 c-3 -5 -11 -10 -16 -10 -6 0 -7 5 -4 10 3 6 11 10 16 10 6 0 7 -4 4 -10z
m-5204 -42 c-34 -26 -48 -22 -21 7 12 13 27 22 33 18 6 -4 1 -14 -12 -25z
m-676 13 c-28 -25 -108 -81 -117 -81 -21 0 -1 21 52 54 51 33 87 48 65 27z
m6043 -12 c-2 -6 -8 -10 -13 -10 -5 0 -11 4 -13 10 -2 6 4 11 13 11 9 0 15 -5
13 -11z m1572 7 c0 -8 -67 -46 -81 -46 -7 0 2 11 21 25 30 22 60 33 60 21z
m-6379 -100 c-77 -77 -82 -85 -71 -106 10 -18 9 -25 -4 -38 -15 -15 -16 -12
-16 36 0 42 5 57 23 75 38 36 139 117 145 117 4 0 -31 -38 -77 -84z m1089 74
c0 -5 -5 -10 -11 -10 -5 0 -7 5 -4 10 3 6 8 10 11 10 2 0 4 -4 4 -10z m7530
-37 c0 -25 -2 -44 -4 -42 -8 10 -13 89 -5 89 5 0 9 -21 9 -47z m-8683 12 c-4
-8 -11 -15 -17 -15 -14 0 -13 27 3 33 16 6 21 1 14 -18z m540 -4 l22 -6 5
-350 c3 -192 8 -379 12 -414 l7 -64 -34 6 c-19 4 -76 14 -126 23 l-93 17 0
403 0 404 93 -7 c50 -3 102 -9 114 -12z m9261 7 c-8 -25 -90 -53 -96 -33 -1 6
8 11 22 13 13 2 30 10 36 18 15 17 43 19 38 2z m-2512 -36 c-18 -16 -18 -16
-6 6 6 13 14 21 18 18 3 -4 -2 -14 -12 -24z m2244 9 c0 -13 -29 -35 -37 -28
-7 8 15 37 28 37 5 0 9 -4 9 -9z m-9980 -8 c0 -8 -49 -56 -82 -82 -34 -26 -18
6 24 47 40 40 58 51 58 35z m1340 -2 c0 -14 -22 -28 -55 -35 l-30 -6 30 25
c30 25 55 32 55 16z m2407 -17 c-9 -9 -28 6 -21 18 4 6 10 6 17 -1 6 -6 8 -13
4 -17z m6668 16 c-3 -5 -11 -10 -17 -10 -6 0 -26 -11 -45 -26 -18 -14 -33 -21
-33 -15 0 15 63 61 83 61 10 0 15 -4 12 -10z m-11005 -12 c0 -15 -30 -48 -43
-48 -6 0 -19 -7 -29 -17 -10 -9 -21 -13 -25 -10 -6 7 76 86 90 87 4 0 7 -5 7
-12z m1690 2 c0 -5 -4 -10 -9 -10 -6 0 -13 5 -16 10 -3 6 1 10 9 10 9 0 16 -4
16 -10z m2857 0 c14 0 21 -4 18 -10 -3 -5 -28 -10 -56 -10 -39 0 -49 3 -49 16
0 13 7 15 31 10 17 -3 42 -6 56 -6z m2943 2 c0 -14 -49 -56 -57 -49 -3 4 4 18
17 32 24 25 40 32 40 17z m-2760 -12 c0 -5 -18 -10 -41 -10 -24 0 -38 4 -34
10 3 6 22 10 41 10 19 0 34 -4 34 -10z m4814 -5 c-6 -16 -34 -21 -34 -7 0 13
11 22 26 22 8 0 11 -6 8 -15z m-1253 -28 c-10 -9 -11 -8 -5 6 3 10 9 15 12 12
3 -3 0 -11 -7 -18z m2732 -21 c-15 -14 -30 -20 -32 -14 -2 6 9 21 25 33 38 30
44 13 7 -19z m-743 14 c0 -6 -27 -38 -61 -71 -62 -61 -65 -61 -20 1 51 71 81
97 81 70z m-8990 -25 c0 -8 -4 -15 -10 -15 -5 0 -10 7 -10 15 0 8 5 15 10 15
6 0 10 -7 10 -15z m-680 -5 c0 -5 -5 -10 -11 -10 -5 0 -7 5 -4 10 3 6 8 10 11
10 2 0 4 -4 4 -10z m2800 1 c0 -6 -4 -13 -10 -16 -5 -3 -10 1 -10 9 0 9 5 16
10 16 6 0 10 -4 10 -9z m3100 1 c0 -13 -12 -22 -22 -16 -10 6 -1 24 13 24 5 0
9 -4 9 -8z m-6134 -40 c-11 -12 -19 -13 -27 -5 -8 8 -4 15 13 27 28 20 39 3
14 -22z m9934 -1 c-6 -12 -15 -21 -21 -21 -10 0 -5 13 14 38 15 19 20 7 7 -17z
m-2820 5 c0 -13 -58 -56 -75 -56 -7 0 65 68 73 70 1 0 2 -6 2 -14z m2588 -30
c-22 -34 -38 -46 -38 -27 0 10 53 70 58 66 2 -2 -7 -19 -20 -39z m-10088 -1
c0 -30 -3 -35 -23 -35 -13 0 -42 -14 -65 -31 -24 -17 -46 -28 -50 -25 -6 7
116 125 131 126 4 0 7 -16 7 -35z m9700 -5 c-12 -23 -49 -45 -58 -35 -7 7 46
55 61 55 4 0 3 -9 -3 -20z m-9050 -15 c0 -8 -7 -15 -15 -15 -16 0 -20 12 -8
23 11 12 23 8 23 -8z m3006 -121 c-7 -17 -36 -7 -36 12 0 8 -7 17 -15 20 -21
8 -19 14 18 54 l32 34 3 -53 c2 -30 1 -60 -2 -67z m-3239 74 c-3 -8 -6 -5 -6
6 -1 11 2 17 5 13 3 -3 4 -12 1 -19z m1543 12 c0 -5 -7 -10 -16 -10 -8 0 -12
5 -9 10 3 6 10 10 16 10 5 0 9 -4 9 -10z m5526 -38 c-17 -17 -26 -22 -26 -12
0 19 44 64 48 50 3 -7 -7 -24 -22 -38z m-5786 24 c0 -3 -4 -8 -10 -11 -5 -3
-10 -1 -10 4 0 6 5 11 10 11 6 0 10 -2 10 -4z m7914 -10 c-3 -8 -13 -17 -22
-21 -13 -5 -13 -2 3 15 21 24 26 25 19 6z m-9814 -3 c0 -5 -11 -16 -25 -26
-25 -18 -42 -9 -31 18 5 15 56 21 56 8z m1491 -16 c-13 -13 -26 -3 -16 12 3 6
11 8 17 5 6 -4 6 -10 -1 -17z m-1291 -12 c0 -16 -90 -79 -99 -69 -6 6 78 84
91 84 4 0 8 -7 8 -15z m1240 -15 c-32 -24 -42 -14 -11 11 13 11 27 17 30 14 3
-4 -5 -15 -19 -25z m468 -14 c3 -12 -1 -17 -10 -14 -7 3 -15 13 -16 22 -3 12
1 17 10 14 7 -3 15 -13 16 -22z m7992 14 c0 -10 -69 -77 -130 -126 -42 -33
-43 -35 45 60 67 73 85 87 85 66z m-9000 -8 c0 -14 -39 -46 -47 -39 -3 4 2 16
12 27 19 21 35 26 35 12z m4493 -23 c-10 -17 -24 -35 -30 -41 -23 -19 -15 24
9 49 31 33 42 29 21 -8z m-4713 17 c0 -2 -3 -11 -6 -20 -9 -23 -34 -20 -34 4
0 13 7 20 20 20 11 0 20 -2 20 -4z m1478 -18 c-2 -16 -15 -25 -51 -35 -70 -20
-78 -11 -21 24 59 38 77 41 72 11z m1602 18 c0 -2 -8 -10 -17 -17 -16 -13 -17
-12 -4 4 13 16 21 21 21 13z m6768 -47 l-4 -34 -12 27 c-13 30 -6 66 10 50 5
-5 8 -25 6 -43z m-1934 -110 c-74 -161 -69 -152 -84 -147 -7 2 1 26 21 63 18
33 40 82 50 109 18 47 68 130 75 123 2 -2 -26 -68 -62 -148z m-1860 126 c-7
-16 -44 -41 -44 -29 0 11 32 44 41 44 5 0 6 -7 3 -15z m-1144 -14 c0 -5 -9
-19 -20 -32 -21 -26 -27 -11 -10 22 11 19 30 26 30 10z m3120 -17 c0 -14 -12
-19 -23 -8 -9 9 4 35 14 28 5 -3 9 -12 9 -20z m-1018 -14 c-18 -17 -38 -30
-45 -30 -6 0 3 14 21 30 18 17 38 30 45 30 6 0 -3 -14 -21 -30z m-6461 -23
c-13 -13 -26 -3 -16 12 3 6 11 8 17 5 6 -4 6 -10 -1 -17z m2389 13 c0 -5 -4
-10 -10 -10 -5 0 -10 5 -10 10 0 6 5 10 10 10 6 0 10 -4 10 -10z m6300 -9 c0
-10 -95 -104 -111 -109 -23 -9 -5 22 39 68 45 47 72 62 72 41z m-9210 -21 c0
-19 -11 -26 -23 -14 -8 8 3 34 14 34 5 0 9 -9 9 -20z m217 -17 c-14 -15 -30
-23 -34 -19 -4 4 5 19 21 32 37 32 48 21 13 -13z m2933 23 c0 -8 -4 -17 -9
-21 -12 -7 -24 12 -16 25 9 15 25 12 25 -4z m-3670 -6 c0 -13 -28 -25 -38 -16
-3 4 0 11 8 16 20 13 30 12 30 0z m4480 -20 c0 -5 -4 -10 -9 -10 -5 0 -24 -12
-43 -27 l-33 -27 34 37 c35 37 51 46 51 27z m-590 -8 c0 -5 -12 -19 -26 -33
l-27 -24 17 33 c15 29 36 43 36 24z m4640 -7 c0 -8 -4 -15 -10 -15 -5 0 -10 7
-10 15 0 8 5 15 10 15 6 0 10 -7 10 -15z m-4750 -3 c0 -11 -22 -32 -32 -32 -5
0 -4 9 2 20 11 20 30 28 30 12z m220 2 c0 -11 -72 -94 -82 -94 -15 0 -6 17 32
59 33 37 50 49 50 35z m98 -6 c-2 -6 -10 -14 -16 -16 -7 -2 -10 2 -6 12 7 18
28 22 22 4z m112 2 c0 -14 -62 -69 -78 -70 -7 0 4 17 25 39 40 40 53 48 53 31z
m5880 -16 c0 -8 -7 -14 -15 -14 -15 0 -21 21 -9 33 10 9 24 -2 24 -19z m-2580
1 c-7 -9 -15 -13 -17 -11 -7 7 7 26 19 26 6 0 6 -6 -2 -15z m-5548 -20 c1 -9
-59 -51 -100 -71 -21 -10 -27 5 -10 23 21 20 91 62 101 59 5 -1 9 -6 9 -11z
m-2187 -15 c-10 -11 -23 -20 -29 -20 -6 1 0 10 13 20 30 26 39 26 16 0z m3871
-38 c-36 -37 -44 -19 -10 21 20 22 30 28 32 19 2 -8 -8 -26 -22 -40z m-3068 8
c-25 -35 -38 -38 -38 -10 0 19 24 39 48 40 8 0 5 -11 -10 -30z m222 18 c-1
-16 -59 -82 -66 -75 -6 6 48 86 59 87 4 0 7 -6 7 -12z m500 2 c0 -5 -4 -10
-10 -10 -5 0 -10 5 -10 10 0 6 5 10 10 10 6 0 10 -4 10 -10z m-1305 -20 c-3
-5 -10 -10 -16 -10 -5 0 -9 5 -9 10 0 6 7 10 16 10 8 0 12 -4 9 -10z m9395 -6
c0 -12 -62 -85 -68 -80 -7 8 46 86 58 86 6 0 10 -3 10 -6z m-7655 -23 c-3 -6
-11 -11 -17 -11 -6 0 -6 6 2 15 14 17 26 13 15 -4z m8445 -11 c0 -24 -6 -33
-27 -41 -40 -15 -47 -6 -19 24 14 16 26 32 26 38 0 5 5 9 10 9 6 0 10 -14 10
-30z m-2669 -22 c-34 -26 -48 -22 -21 7 12 13 27 22 33 18 6 -4 1 -14 -12 -25z
m-4068 15 c3 -5 0 -19 -5 -33 -7 -20 -11 -22 -18 -10 -14 23 -12 50 4 50 8 0
17 -3 19 -7z m6792 -3 c-3 -5 -13 -10 -21 -10 -8 0 -12 5 -9 10 3 6 13 10 21
10 8 0 12 -4 9 -10z m-1085 -10 c0 -5 -5 -10 -11 -10 -5 0 -7 5 -4 10 3 6 8
10 11 10 2 0 4 -4 4 -10z m-8289 -32 c13 -31 12 -32 -31 -71 -51 -44 -80 -62
-80 -48 0 11 57 120 72 138 16 20 24 16 39 -19z m1109 -3 c0 -18 -7 -26 -25
-31 -40 -10 -48 -1 -25 29 27 34 50 35 50 2z m4600 5 c0 -5 -4 -10 -10 -10 -5
0 -10 5 -10 10 0 6 5 10 10 10 6 0 10 -4 10 -10z m-2900 -20 c0 -13 -7 -20
-20 -20 -18 0 -19 3 -10 20 6 11 15 20 20 20 6 0 10 -9 10 -20z m5280 10 c0
-5 -4 -10 -10 -10 -5 0 -10 5 -10 10 0 6 5 10 10 10 6 0 10 -4 10 -10z m-5187
-30 c-3 -11 -9 -20 -14 -20 -10 0 -11 12 -3 34 9 22 23 10 17 -14z m-3773 10
c0 -5 -4 -10 -10 -10 -5 0 -10 5 -10 10 0 6 5 10 10 10 6 0 10 -4 10 -10z
m5903 -12 c-13 -12 -26 -19 -29 -15 -4 4 1 14 12 22 29 22 41 18 17 -7z
m-5273 2 c0 -5 -4 -10 -10 -10 -5 0 -10 5 -10 10 0 6 5 10 10 10 6 0 10 -4 10
-10z m3560 2 c0 -13 -12 -22 -22 -16 -10 6 -1 24 13 24 5 0 9 -4 9 -8z m120
-7 c0 -8 -4 -15 -9 -15 -13 0 -22 16 -14 24 11 11 23 6 23 -9z m3240 -27 c0
-11 -42 -52 -103 -100 l-42 -33 23 33 c13 17 32 36 42 42 10 5 28 26 40 45 20
32 40 39 40 13z m-7736 -53 c1 -33 -1 -35 -30 -35 -17 0 -36 6 -42 13 -16 20
2 52 34 58 37 7 37 6 38 -36z m1506 38 c0 -10 -42 -53 -52 -53 -5 0 0 14 12
30 20 28 40 39 40 23z m668 -40 c-2 -9 -13 -18 -25 -19 -27 -5 -29 3 -7 27 19
21 37 16 32 -8z m-1978 -27 c0 -8 3 -21 6 -30 5 -12 0 -16 -20 -16 -28 0 -36
26 -14 48 16 16 28 15 28 -2z m929 -11 c2 -12 -14 -33 -45 -61 -78 -69 -85
-52 -16 37 38 49 54 56 61 24z m-1039 0 c0 -8 -7 -15 -15 -15 -26 0 -18 20 13
29 1 1 2 -6 2 -14z m209 -38 c1 -5 -3 -5 -9 -2 -5 3 -10 16 -9 28 0 21 1 21 9
2 5 -11 9 -24 9 -28z m5316 -4 c-28 -68 -64 -107 -81 -90 -9 9 67 127 82 127
12 0 12 -5 -1 -37z m2139 2 c6 -16 -82 -118 -118 -137 -14 -8 -9 4 19 43 87
122 88 123 99 94z m-4104 -8 c0 -7 -7 -22 -15 -33 -14 -18 -14 -18 -15 7 0 14
3 29 7 32 11 11 23 8 23 -6z m-2677 -14 c-12 -34 -35 -63 -49 -63 -20 0 -18 6
14 46 29 37 45 44 35 17z m547 5 c-1 -15 -49 -53 -56 -45 -6 6 37 54 49 56 4
1 7 -5 7 -11z m1562 -3 c6 -6 -71 -85 -82 -85 -20 0 -16 17 11 51 28 35 56 48
71 34z m798 -40 c0 -36 -5 -41 -29 -26 -12 8 -13 14 -3 35 16 37 32 32 32 -9z
m-580 10 c0 -8 -4 -15 -9 -15 -13 0 -22 16 -14 24 11 11 23 6 23 -9z m-2115
-26 c4 -6 -2 -17 -13 -25 -11 -7 -23 -25 -26 -39 -6 -23 -49 -45 -62 -32 -8 8
68 107 83 107 6 0 15 -5 18 -11z m7710 -35 c0 -12 -8 -20 -22 -22 -26 -4 -28
0 -11 28 15 24 33 21 33 -6z m-6542 -21 c9 -9 -12 -33 -30 -33 -11 0 -11 4 -3
20 11 21 22 25 33 13z m122 -23 c-5 -8 -11 -8 -17 -2 -6 6 -7 16 -3 22 5 8 11
8 17 2 6 -6 7 -16 3 -22z m1389 -29 c-15 -28 -29 -49 -31 -47 -2 2 8 27 23 55
14 29 29 50 31 47 3 -3 -7 -27 -23 -55z m4782 49 c8 0 14 -7 14 -15 0 -18 -31
-20 -48 -3 -17 17 -15 31 4 24 9 -3 22 -6 30 -6z m-3116 -9 c0 -11 -39 -59
-40 -49 0 14 23 58 32 58 4 0 8 -4 8 -9z m-3999 -24 c-13 -13 -26 -3 -16 12 3
6 11 8 17 5 6 -4 6 -10 -1 -17z m4119 -54 c0 -5 -5 -15 -10 -23 -8 -12 -10
-11 -10 8 0 12 5 22 10 22 6 0 10 -3 10 -7z m-4310 -13 c0 -5 -4 -10 -10 -10
-5 0 -10 5 -10 10 0 6 5 10 10 10 6 0 10 -4 10 -10z m634 -5 c-6 -16 -24 -21
-24 -7 0 11 11 22 21 22 5 0 6 -7 3 -15z m3116 -4 c0 -11 -29 -35 -35 -29 -10
9 7 38 21 38 8 0 14 -4 14 -9z m-1760 -15 c0 -18 -13 -27 -60 -43 l-35 -12 40
34 c44 38 55 42 55 21z m1530 5 c0 -5 -18 -24 -40 -41 -22 -17 -40 -27 -40
-21 0 5 6 14 14 18 7 4 18 18 25 31 11 21 41 31 41 13z m94 -6 c-6 -16 -24
-21 -24 -7 0 11 11 22 21 22 5 0 6 -7 3 -15z m-724 -10 c0 -17 -33 -66 -50
-75 -11 -6 -20 -8 -20 -5 0 16 47 85 58 85 6 0 12 -2 12 -5z m-564 -42 c-10
-10 -19 5 -10 18 6 11 8 11 12 0 2 -7 1 -15 -2 -18z m-1596 -12 c0 -18 8 -34
23 -44 l22 -16 -22 0 c-20 -1 -83 43 -83 58 0 6 37 27 53 30 4 0 7 -12 7 -28z
m2970 27 c0 -9 -100 -97 -100 -89 0 17 71 91 86 91 8 0 14 -1 14 -2z m-169
-61 c-16 -16 -26 0 -10 19 9 11 15 12 17 4 2 -6 -1 -17 -7 -23z m2737 9 c3
-12 -1 -17 -10 -14 -7 3 -15 13 -16 22 -3 12 1 17 10 14 7 -3 15 -13 16 -22z
m-4237 -104 c3 -55 2 -57 -22 -54 -13 2 -26 6 -28 8 -4 4 13 96 26 139 6 18 7
17 14 -8 4 -16 9 -54 10 -85z m-1211 79 c0 -12 -20 -25 -27 -18 -7 7 6 27 18
27 5 0 9 -4 9 -9z m1560 -7 c0 -17 -22 -14 -28 4 -2 7 3 12 12 12 9 0 16 -7
16 -16z m-1274 -19 c10 -24 -5 -36 -27 -24 -16 8 -18 13 -8 25 15 18 28 18 35
-1z m2374 1 c0 -2 -8 -10 -17 -17 -16 -13 -17 -12 -4 4 13 16 21 21 21 13z
m-2252 -18 c-6 -16 -36 -34 -44 -26 -3 4 -4 14 -1 23 7 17 51 21 45 3z m206
-4 c11 -29 -6 -42 -33 -25 -12 8 -12 12 -2 25 17 20 27 20 35 0z m241 -10 c36
-24 31 -34 -18 -34 -54 0 -62 7 -34 31 27 22 23 22 52 3z m-145 -14 c0 -5 -7
-10 -16 -10 -8 0 -12 5 -9 10 3 6 10 10 16 10 5 0 9 -4 9 -10z m2610 -63 c0
-25 -4 -37 -9 -31 -17 17 -18 89 -1 79 6 -3 10 -25 10 -48z m-1600 -6 c25 -47
2 -68 -31 -29 -20 23 -23 31 -12 41 12 13 32 7 43 -12z m1091 -15 l15 -34 -50
-6 c-28 -3 -82 -6 -120 -6 l-70 0 34 35 33 34 25 -19 c32 -26 44 -25 72 5 31
33 42 31 61 -9z m120 -6 c10 0 19 -4 19 -10 0 -5 -16 -10 -35 -10 -25 0 -35 4
-35 16 0 11 5 14 16 10 9 -3 24 -6 35 -6z m-971 -26 c0 -8 -9 -14 -20 -14 -22
0 -26 10 -8 28 13 13 28 7 28 -14z m-75 6 c3 -5 -1 -10 -9 -10 -9 0 -16 5 -16
10 0 6 4 10 9 10 6 0 13 -4 16 -10z m155 -5 c0 -10 -10 -15 -32 -15 l-33 1 25
14 c32 18 40 18 40 0z m270 -1 c0 -10 -15 -14 -55 -14 -42 0 -53 3 -49 14 3 9
22 14 55 14 35 0 49 -4 49 -14z m184 -11 c-13 -10 -20 -10 -23 -2 -4 14 19 30
33 22 5 -3 1 -12 -10 -20z"/>
<path d="M12497 12305 c-59 -16 -96 -40 -106 -68 -33 -87 133 -103 489 -46 70
11 170 46 170 59 0 15 -159 39 -265 40 -38 0 -99 7 -135 15 -78 17 -91 17
-153 0z"/>
<path d="M4524 10186 c-63 -36 -147 -100 -180 -138 -32 -37 -73 -151 -101
-283 -22 -102 -21 -395 1 -500 32 -151 99 -241 222 -301 77 -38 154 -31 250
20 95 51 129 87 158 165 49 133 66 239 66 407 0 131 -13 184 -51 204 -43 23
-139 -57 -139 -116 0 -15 13 -33 36 -51 46 -35 64 -77 64 -150 0 -74 -11 -94
-34 -62 -9 13 -16 29 -16 35 0 19 -47 45 -119 65 -111 32 -140 25 -232 -57
-28 -25 -58 -44 -67 -42 -9 2 -25 19 -36 38 -18 31 -21 52 -21 165 0 142 15
193 69 244 25 24 26 24 46 6 21 -19 63 -103 74 -146 3 -15 14 -37 24 -49 16
-19 22 -21 40 -11 29 16 69 86 83 148 11 46 10 54 -10 86 -12 20 -21 51 -21
74 0 22 -5 66 -12 98 -9 45 -9 60 0 63 6 2 21 11 33 21 20 16 21 19 6 48 -25
48 -71 55 -133 19z m151 -915 c17 -31 39 -54 61 -64 19 -9 34 -21 34 -26 0
-19 -38 -51 -102 -85 -86 -46 -105 -46 -114 -2 -10 58 60 247 86 231 5 -3 21
-27 35 -54z"/>
<path d="M8749 10002 c-170 -89 -198 -118 -248 -257 -54 -149 -64 -226 -58
-429 6 -198 17 -258 70 -364 34 -71 83 -117 189 -181 135 -81 242 -89 404 -29
118 44 167 91 212 206 41 104 55 208 50 370 -3 107 -7 134 -26 169 -36 68 -78
79 -157 42 -77 -36 -107 -98 -67 -136 10 -10 39 -32 64 -49 37 -26 47 -40 57
-78 12 -48 5 -146 -10 -146 -5 0 -15 12 -23 28 -30 57 -97 98 -204 126 -92 23
-169 21 -214 -7 -20 -12 -57 -35 -83 -51 -58 -36 -89 -29 -118 27 -16 32 -20
60 -21 155 0 101 3 124 23 169 30 68 60 96 95 87 32 -8 57 -41 101 -137 41
-88 54 -101 95 -92 46 10 101 92 114 170 6 32 3 46 -12 65 -35 45 -52 88 -52
132 -1 24 -7 54 -15 68 -21 37 -19 46 20 69 41 24 43 40 12 77 -18 20 -35 28
-73 31 -43 4 -59 0 -125 -35z m283 -984 c14 -19 42 -43 62 -52 19 -9 38 -21
41 -25 10 -16 -54 -59 -112 -76 -32 -9 -75 -21 -97 -28 -34 -10 -40 -9 -52 8
-8 10 -14 33 -14 49 0 36 40 126 77 175 l26 34 21 -25 c12 -14 33 -41 48 -60z"/>
<path d="M8007 15709 c7 -7 15 -10 18 -7 3 3 -2 9 -12 12 -14 6 -15 5 -6 -5z"/>
<path d="M4220 8311 c0 -28 -4 -52 -8 -55 -10 -6 -289 21 -303 29 -5 4 -9 19
-9 36 0 19 -5 29 -15 29 -10 0 -15 -10 -15 -30 0 -28 -2 -30 -39 -30 -49 0
-64 -18 -22 -26 17 -4 36 -13 42 -21 15 -17 7 -186 -26 -533 -13 -140 -27
-337 -31 -437 -7 -197 -5 -192 -63 -172 -18 6 -35 9 -38 5 -11 -11 17 -33 57
-45 34 -10 40 -16 40 -40 0 -49 12 -91 26 -91 9 0 14 12 14 38 0 64 4 65 125
27 61 -19 130 -40 155 -47 43 -13 44 -14 55 -67 13 -70 35 -80 35 -17 0 54 6
55 105 31 70 -17 85 -18 85 -7 0 10 -76 45 -133 62 l-37 12 5 236 c4 131 10
284 16 341 5 58 9 141 9 186 0 50 5 86 12 93 7 7 11 28 10 48 -2 19 3 51 10
70 10 29 10 37 -4 51 -15 14 -15 20 -3 43 9 17 10 31 4 41 -5 8 -9 38 -9 67
l0 52 44 0 c76 0 71 33 -6 46 -32 6 -38 10 -38 32 0 37 -22 92 -37 92 -9 0
-13 -16 -13 -49z m-180 -99 c0 -4 -16 -23 -35 -42 -37 -36 -46 -31 -18 10 24
35 53 53 53 32z m95 -12 c-10 -16 -125 -102 -125 -93 1 25 105 117 121 107 5
-3 7 -9 4 -14z m75 -20 c0 -11 -7 -20 -15 -20 -13 0 -14 4 -5 20 6 11 13 20
15 20 3 0 5 -9 5 -20z m-305 -239 c3 -5 1 -12 -5 -16 -5 -3 -10 1 -10 9 0 18
6 21 15 7z m5 -101 c0 -5 -7 -10 -15 -10 -8 0 -15 5 -15 10 0 6 7 10 15 10 8
0 15 -4 15 -10z m280 -105 c0 -14 -6 -25 -12 -25 -7 0 -24 -3 -38 -7 l-25 -6
29 32 c36 38 46 39 46 6z m-270 -42 c-1 -5 -12 -21 -25 -38 l-25 -30 0 32 c0
17 6 34 13 36 19 8 37 8 37 0z m264 -76 c-5 -14 -72 -42 -80 -34 -6 6 57 47
73 47 7 0 10 -6 7 -13z m-284 -18 c0 -12 -29 -24 -37 -16 -3 4 -3 13 0 21 6
16 37 11 37 -5z m55 -59 c-11 -18 -95 -71 -95 -60 0 6 21 24 47 40 51 32 57
35 48 20z m215 -33 c0 -15 -49 -41 -59 -32 -6 6 38 44 52 45 4 0 7 -6 7 -13z
m-303 -109 c-3 -8 -6 -5 -6 6 -1 11 2 17 5 13 3 -3 4 -12 1 -19z m303 -7 c0
-10 -25 -21 -48 -21 -15 1 -14 3 2 15 22 17 46 20 46 6z m-290 -81 c-8 -5 -19
-10 -25 -10 -5 0 -3 5 5 10 8 5 20 10 25 10 6 0 3 -5 -5 -10z m280 -10 c0 -5
-5 -10 -11 -10 -5 0 -7 5 -4 10 3 6 8 10 11 10 2 0 4 -4 4 -10z m0 -100 c0
-29 -2 -31 -33 -25 -22 4 -50 0 -86 -15 -89 -34 -82 -15 9 28 47 23 91 41 98
41 7 1 12 -11 12 -29z m-18 -92 c-6 -6 -15 -8 -19 -4 -4 4 -1 11 7 16 19 12
27 3 12 -12z"/>
</g>
</svg>
